<svg xmlns="http://www.w3.org/2000/svg" version="1.1" xmlns:xlink="http://www.w3.org/1999/xlink" xmlns:svgjs="http://svgjs.dev/svgjs" viewBox="0 0 600 600"><path d="M532.2377319335938,425.8741149902344C550.2447255452474,362.7622248331706,588.706298828125,199.9999917348226,556.3636474609375,139.51048278808594C524.02099609375,79.02097384134927,407.9370702107747,67.30768966674805,338.18182373046875,62.93706130981445C268.4265772501628,58.56643295288086,191.15384769439697,85.66433525085449,137.83216857910156,113.28671264648438C84.51048946380615,140.90909004211426,40.97902188698451,182.6923065185547,18.25174903869629,228.67132568359375C-4.47552380959193,274.6503448486328,-11.293705741564432,340.0349527994792,1.4685314893722534,389.16082763671875C14.230768720308939,438.2867024739583,54.44055602947871,514.1608378092448,94.8251724243164,523.4265747070312C135.2097888191541,532.6923116048177,197.62238184611002,450.52448018391925,243.77622985839844,444.7552490234375C289.93007787068683,438.98601786295575,337.65735117594403,476.57342529296875,371.7482604980469,488.8111877441406C405.8391698201497,501.0489501953125,421.5734405517578,528.6713358561198,448.3216857910156,518.1818237304688C475.06993103027344,507.6923116048177,514.2307383219401,488.98600514729816,532.2377319335938,425.8741149902344C550.2447255452474,362.7622248331706,588.706298828125,199.9999917348226,556.3636474609375,139.51048278808594" fill="hsl(262, 37%, 71%)" transform="matrix(1,0,0,1,18.010696411132812,6.6874237060546875)"></path></svg>