<svg xmlns="http://www.w3.org/2000/svg" version="1.1" xmlns:xlink="http://www.w3.org/1999/xlink" xmlns:svgjs="http://svgjs.dev/svgjs" viewBox="0 0 600 600"><path d="M444.1258850097656,90.20979309082031C415.9790293375651,76.7482541402181,417.0279846191406,74.30070050557454,368.6014099121094,65.03496551513672C320.1748352050781,55.76923052469889,207.06294186909994,28.671326955159504,153.56643676757812,34.61538314819336C100.0699316660563,40.55943934122721,70.87412802378337,66.6083927154541,47.622379302978516,100.69930267333984C24.370630582173664,134.7902126312256,13.88111941019694,195.10489781697592,14.055944442749023,239.1608428955078C14.230769475301107,283.21678797403973,46.92307790120443,331.29371388753253,48.671329498291016,365.03497314453125C50.4195810953776,398.77623240152997,28.391607920328777,409.6153971354167,24.545454025268555,441.6083984375C20.699300130208332,473.6013997395833,4.440559069315594,534.4405314127604,25.594406127929688,556.9929809570312C46.74825318654378,579.5454305013021,111.95804595947266,581.8181966145834,151.46853637695312,576.923095703125C190.9790267944336,572.0279947916666,228.21679178873697,549.1258748372396,262.6573486328125,527.6223754882812C297.097905476888,506.11887613932294,332.2377522786458,451.7482554117839,358.11187744140625,447.902099609375C383.9860026041667,444.0559438069661,387.83216349283856,507.6922963460286,417.902099609375,504.5454406738281C447.97203572591144,501.3985850016276,517.9021199544271,459.44054158528644,538.531494140625,429.0209655761719C559.1608683268229,398.6013895670573,541.3286946614584,357.86714426676434,541.6783447265625,322.0279846191406C542.0279947916666,286.1888249715169,541.3286946614584,243.35663859049478,540.62939453125,213.9860076904297C539.9300944010416,184.6153767903646,553.5664621988932,166.4335683186849,537.4825439453125,145.80419921875C521.3986256917318,125.17483011881511,472.2727406819661,103.67133204142253,444.1258850097656,90.20979309082031C415.9790293375651,76.7482541402181,417.0279846191406,74.30070050557454,368.6014099121094,65.03496551513672" fill="hsl(262, 37%, 71%)" transform="matrix(1,0,0,1,18.721420288085938,-6.4173126220703125)"></path></svg>