<svg xmlns="http://www.w3.org/2000/svg" version="1.1" xmlns:xlink="http://www.w3.org/1999/xlink" xmlns:svgjs="http://svgjs.dev/svgjs" viewBox="0 0 600 600"><path d="M540.62939453125,355.5943908691406C548.4965311686198,311.01397196451825,584.1608479817709,208.2167739868164,565.80419921875,158.3916015625C547.4475504557291,108.5664291381836,481.71327718098956,77.27272605895996,430.489501953125,56.64335632324219C379.26572672526044,36.013986587524414,317.37763086954754,31.468530019124348,258.4615478515625,34.61538314819336C199.54546483357748,37.76223627726237,115.80419413248697,50.52447446187337,76.99300384521484,75.52447509765625C38.18181355794271,100.52447573343913,34.51048946380615,146.15384928385416,25.594406127929688,184.61538696289062C16.678322792053223,223.0769246419271,24.195804595947266,266.78321329752606,23.496503829956055,306.293701171875C22.797203063964844,345.80418904622394,8.111888567606607,379.72027587890625,21.398601531982422,421.6783142089844C34.68531449635824,463.6363525390625,63.18181546529134,539.8601125081381,103.21678161621094,558.0419311523438C143.25174776713052,576.2237497965494,228.04196421305338,545.6293589274088,261.6083984375,530.7692260742188C295.1748326619466,515.9090932210287,277.5174865722656,480.94407145182294,304.6153869628906,468.8811340332031C331.7132873535156,456.8181966145833,388.5314687093099,465.55943806966144,424.19580078125,458.3916015625C459.8601328531901,451.22376505533856,499.19578043619794,443.0069834391276,518.6013793945312,425.8741149902344C538.0069783528646,408.7412465413411,532.7622578938802,400.174809773763,540.62939453125,355.5943908691406C548.4965311686198,311.01397196451825,584.1608479817709,208.2167739868164,565.80419921875,158.3916015625" fill="hsl(262, 37%, 71%)"></path></svg>