<svg xmlns="http://www.w3.org/2000/svg" version="1.1" xmlns:xlink="http://www.w3.org/1999/xlink" xmlns:svgjs="http://svgjs.dev/svgjs" viewBox="0 0 600 600"><path d="M563.706298828125,274.8251647949219C576.118886311849,231.64334615071616,590.8042043050131,185.4895044962565,563.706298828125,155.2447509765625C536.6083933512369,124.99999745686848,459.33565012613934,105.24475479125977,401.1188659667969,93.35664367675781C342.9020818074544,81.46853256225586,268.2517445882161,78.3216781616211,214.4055938720703,83.91608428955078C160.55944315592447,89.51049041748047,112.3076958656311,106.99301020304362,78.04196166992188,126.92308044433594C43.77622747421265,146.85315068562826,20.699301163355507,171.5034968058268,8.811188697814941,203.4965057373047C-3.076923767725626,235.48951466878256,4.440559705098471,277.97204335530597,6.713286876678467,318.8811340332031C8.986014048258463,359.7902247111003,6.888111035029093,415.03496805826825,22.447551727294922,448.9510498046875C38.00699241956075,482.86713155110675,58.63636461893717,500.52447509765625,100.06993103027344,522.3776245117188C141.5034974416097,544.2307739257812,222.2727279663086,570.629384358724,271.0489501953125,580.0699462890625C319.8251724243164,589.510508219401,359.51048278808594,588.4615580240885,392.7272644042969,579.02099609375C425.9440460205078,569.5804341634115,454.2657216389974,550.8741302490234,470.3496398925781,523.4265747070312C486.4335581461589,495.97901916503906,473.67133076985675,455.76923116048175,489.23077392578125,414.3356628417969C504.79021708170575,372.902094523112,551.293711344401,318.0069834391276,563.706298828125,274.8251647949219C576.118886311849,231.64334615071616,590.8042043050131,185.4895044962565,563.706298828125,155.2447509765625" fill="hsl(262, 37%, 71%)" transform="matrix(1,0,0,1,9.360677719116211,-33.939239501953125)"></path></svg>