<svg xmlns="http://www.w3.org/2000/svg" version="1.1" xmlns:xlink="http://www.w3.org/1999/xlink" xmlns:svgjs="http://svgjs.dev/svgjs" viewBox="0 0 600 600"><path d="M524.8950805664062,313.6363525390625C542.9020741780599,258.04194895426434,578.0419667561849,135.6643352508545,555.314697265625,92.30769348144531C532.5874277750651,48.95105171203613,451.8181788126628,49.825173695882164,388.5314636230469,53.49650192260742C325.24474843343097,57.16783014933268,232.0629367828369,99.82517433166504,175.5944061279297,114.33566284179688C119.12587547302246,128.8461513519287,72.79720306396484,109.61537679036458,49.720279693603516,140.55943298339844C26.643356323242188,171.50348917643228,40.45454406738281,255.244753519694,37.13286590576172,300C33.811187744140625,344.75524648030597,22.62237803141276,368.18182373046875,29.790210723876953,409.0909118652344C36.95804341634115,450,36.433566411336265,527.4475351969401,80.13986206054688,545.4545288085938C123.84615770975748,563.4615224202474,230.83917236328125,537.0629425048828,292.0279846191406,517.1328735351562C353.216796875,497.2028045654297,408.4615529378255,459.7902018229167,447.2727355957031,425.8741149902344C486.08391825358075,391.95802815755206,506.8880869547526,369.23075612386066,524.8950805664062,313.6363525390625C542.9020741780599,258.04194895426434,578.0419667561849,135.6643352508545,555.314697265625,92.30769348144531" fill="hsl(262, 37%, 71%)"></path></svg>