<svg xmlns="http://www.w3.org/2000/svg" version="1.1" xmlns:xlink="http://www.w3.org/1999/xlink" xmlns:svgjs="http://svgjs.dev/svgjs" viewBox="0 0 600 600"><path d="M534.335693359375,358.74127197265625C550.5944366455078,301.04896291097003,577.3426767985026,192.65733909606934,552.1678466796875,138.46153259277344C526.9930165608724,84.26572608947754,451.8181838989258,46.50349489847819,383.2867126464844,33.56643295288086C314.75524139404297,20.62937100728353,200.4195785522461,35.66433525085449,140.97901916503906,60.83916091918945C81.53845977783203,86.01398658752441,45.69930013020833,145.27972221374512,26.643356323242188,184.61538696289062C7.587412516276043,223.95105171203613,23.146852493286133,247.20279947916666,26.643356323242188,296.8531494140625C30.139860153198242,346.5034993489583,15.979022979736328,441.78322347005206,47.622379302978516,482.5174865722656C79.2657356262207,523.2517496744791,169.82517051696777,544.0559336344401,216.5034942626953,541.2587280273438C263.18181800842285,538.4615224202474,288.0070063273112,475.174809773763,327.69232177734375,465.7342529296875C367.3776372273763,456.293696085612,420.17482503255206,502.4475504557292,454.6153869628906,484.6153869628906C489.0559488932292,466.78322347005206,518.0769500732422,416.43358103434247,534.335693359375,358.74127197265625C550.5944366455078,301.04896291097003,577.3426767985026,192.65733909606934,552.1678466796875,138.46153259277344" fill="hsl(262, 37%, 71%)" transform="matrix(1,0,0,1,10.081905364990234,14.831138610839844)"></path></svg>