<svg xmlns="http://www.w3.org/2000/svg" version="1.1" xmlns:xlink="http://www.w3.org/1999/xlink" xmlns:svgjs="http://svgjs.dev/svgjs" viewBox="0 0 600 600"><path d="M511.25872802734375,145.80419921875C497.4475351969401,111.01399103800455,506.1887969970703,83.04195658365886,469.3006896972656,68.18181610107422C432.41258239746094,53.321675618489586,351.46854400634766,51.57342529296875,289.9300842285156,56.64335632324219C228.3916244506836,61.713287353515625,142.72727584838867,68.35664621988933,100.06993103027344,98.60140228271484C57.4125862121582,128.84615834554037,49.72028120358785,193.00699742635092,33.98601531982422,238.1118927001953C18.251749436060585,283.21678797403973,6.013986428578694,323.95105234781903,5.66433572769165,369.23077392578125C5.314685026804606,414.51049550374347,-0.8041956424713135,481.118896484375,31.888111114501953,509.79022216796875C64.58041787147522,538.4615478515625,134.33566093444824,539.5104777018229,201.81817626953125,541.2587280273438C269.30069160461426,543.0069783528646,379.61536661783856,537.2377624511719,436.783203125,520.2797241210938C493.95103963216144,503.3216857910156,525.5944213867188,480.0699412027995,544.8251953125,439.510498046875C564.0559692382812,398.9510548909505,557.7622578938802,325.8741149902344,552.1678466796875,276.9230651855469C546.5734354654948,227.97201538085938,525.0699208577474,180.59440739949545,511.25872802734375,145.80419921875C497.4475351969401,111.01399103800455,506.1887969970703,83.04195658365886,469.3006896972656,68.18181610107422" fill="hsl(262, 37%, 71%)" transform="matrix(1,0,0,1,18.59913444519043,2.1826019287109375)"></path></svg>